<?xml version="1.0" encoding="UTF-8" standalone="no"?><svg xmlns="http://www.w3.org/2000/svg" xmlns:xlink="http://www.w3.org/1999/xlink" contentScriptType="application/ecmascript" contentStyleType="text/css" height="694px" preserveAspectRatio="none" style="width:429px;height:694px;" version="1.1" viewBox="0 0 429 694" width="429px" zoomAndPan="magnify"><defs/><g><line style="stroke: #000000; stroke-width: 1.7;" x1="10" x2="10" y1="10" y2="651.5"/><line style="stroke: #000000; stroke-width: 1.7;" x1="417" x2="417" y1="10" y2="651.5"/><line style="stroke: #AAAAAA; stroke-width: 0.5; stroke-dasharray: 3.0,5.0;" x1="52" x2="52" y1="10" y2="651.5"/><line style="stroke: #AAAAAA; stroke-width: 0.5; stroke-dasharray: 3.0,5.0;" x1="172" x2="172" y1="10" y2="651.5"/><line style="stroke: #AAAAAA; stroke-width: 0.5; stroke-dasharray: 3.0,5.0;" x1="292" x2="292" y1="10" y2="651.5"/><line style="stroke: #AAAAAA; stroke-width: 0.5; stroke-dasharray: 3.0,5.0;" x1="412" x2="412" y1="10" y2="651.5"/><text fill="#000000" font-family="sans-serif" font-size="12" lengthAdjust="spacingAndGlyphs" textLength="65" x="15" y="22.457">Shoulder(L)</text><line style="stroke: #000000; stroke-width: 1.0;" x1="10" x2="81" y1="26.0938" y2="26.0938"/><line style="stroke: #000000; stroke-width: 1.0;" x1="81" x2="91" y1="26.0938" y2="10"/><line style="stroke: #038048; stroke-width: 1.5;" x1="52" x2="100" y1="40.1875" y2="40.1875"/><line style="stroke: #038048; stroke-width: 1.5;" x1="100" x2="172" y1="60.1875" y2="60.1875"/><line style="stroke: #038048; stroke-width: 1.5;" x1="172" x2="220" y1="40.1875" y2="40.1875"/><line style="stroke: #038048; stroke-width: 1.5;" x1="220" x2="292" y1="60.1875" y2="60.1875"/><line style="stroke: #038048; stroke-width: 1.5;" x1="292" x2="340" y1="40.1875" y2="40.1875"/><line style="stroke: #038048; stroke-width: 1.5;" x1="340" x2="412" y1="60.1875" y2="60.1875"/><line style="stroke: #038048; stroke-width: 1.5;" x1="100" x2="100" y1="40.1875" y2="60.1875"/><line style="stroke: #038048; stroke-width: 1.5;" x1="172" x2="172" y1="40.1875" y2="60.1875"/><line style="stroke: #038048; stroke-width: 1.5;" x1="220" x2="220" y1="40.1875" y2="60.1875"/><line style="stroke: #038048; stroke-width: 1.5;" x1="292" x2="292" y1="40.1875" y2="60.1875"/><line style="stroke: #038048; stroke-width: 1.5;" x1="340" x2="340" y1="40.1875" y2="60.1875"/><text fill="#000000" font-family="sans-serif" font-size="12" lengthAdjust="spacingAndGlyphs" textLength="37" x="15" y="57.5508">stance</text><text fill="#000000" font-family="sans-serif" font-size="12" lengthAdjust="spacingAndGlyphs" textLength="33" x="15" y="37.5508">swing</text><line style="stroke: #000000; stroke-width: 1.7;" x1="10" x2="417" y1="10" y2="10"/><text fill="#000000" font-family="sans-serif" font-size="12" lengthAdjust="spacingAndGlyphs" textLength="34" x="15" y="102.6445">Hip(L)</text><line style="stroke: #000000; stroke-width: 1.0;" x1="10" x2="50" y1="106.2813" y2="106.2813"/><line style="stroke: #000000; stroke-width: 1.0;" x1="50" x2="60" y1="106.2813" y2="90.1875"/><line style="stroke: #038048; stroke-width: 1.5;" x1="52" x2="112" y1="140.375" y2="140.375"/><line style="stroke: #038048; stroke-width: 1.5;" x1="112" x2="164.8" y1="120.375" y2="120.375"/><line style="stroke: #038048; stroke-width: 1.5;" x1="164.8" x2="232" y1="140.375" y2="140.375"/><line style="stroke: #038048; stroke-width: 1.5;" x1="232" x2="284.8" y1="120.375" y2="120.375"/><line style="stroke: #038048; stroke-width: 1.5;" x1="284.8" x2="352" y1="140.375" y2="140.375"/><line style="stroke: #038048; stroke-width: 1.5;" x1="352" x2="404.8" y1="120.375" y2="120.375"/><line style="stroke: #038048; stroke-width: 1.5;" x1="404.8" x2="412" y1="140.375" y2="140.375"/><line style="stroke: #038048; stroke-width: 1.5;" x1="112" x2="112" y1="120.375" y2="140.375"/><line style="stroke: #038048; stroke-width: 1.5;" x1="164.8" x2="164.8" y1="120.375" y2="140.375"/><line style="stroke: #038048; stroke-width: 1.5;" x1="232" x2="232" y1="120.375" y2="140.375"/><line style="stroke: #038048; stroke-width: 1.5;" x1="284.8" x2="284.8" y1="120.375" y2="140.375"/><line style="stroke: #038048; stroke-width: 1.5;" x1="352" x2="352" y1="120.375" y2="140.375"/><line style="stroke: #038048; stroke-width: 1.5;" x1="404.8" x2="404.8" y1="120.375" y2="140.375"/><text fill="#000000" font-family="sans-serif" font-size="12" lengthAdjust="spacingAndGlyphs" textLength="37" x="15" y="137.7383">stance</text><text fill="#000000" font-family="sans-serif" font-size="12" lengthAdjust="spacingAndGlyphs" textLength="33" x="15" y="117.7383">swing</text><line style="stroke: #000000; stroke-width: 1.7;" x1="10" x2="417" y1="90.1875" y2="90.1875"/><text fill="#000000" font-family="sans-serif" font-size="12" lengthAdjust="spacingAndGlyphs" textLength="44" x="15" y="182.832">Knee(L)</text><line style="stroke: #000000; stroke-width: 1.0;" x1="10" x2="60" y1="186.4688" y2="186.4688"/><line style="stroke: #000000; stroke-width: 1.0;" x1="60" x2="70" y1="186.4688" y2="170.375"/><line style="stroke: #038048; stroke-width: 1.5;" x1="52" x2="112" y1="220.5625" y2="220.5625"/><line style="stroke: #038048; stroke-width: 1.5;" x1="112" x2="152.8" y1="200.5625" y2="200.5625"/><line style="stroke: #038048; stroke-width: 1.5;" x1="152.8" x2="232" y1="220.5625" y2="220.5625"/><line style="stroke: #038048; stroke-width: 1.5;" x1="232" x2="272.8" y1="200.5625" y2="200.5625"/><line style="stroke: #038048; stroke-width: 1.5;" x1="272.8" x2="352" y1="220.5625" y2="220.5625"/><line style="stroke: #038048; stroke-width: 1.5;" x1="352" x2="392.8" y1="200.5625" y2="200.5625"/><line style="stroke: #038048; stroke-width: 1.5;" x1="392.8" x2="412" y1="220.5625" y2="220.5625"/><line style="stroke: #038048; stroke-width: 1.5;" x1="112" x2="112" y1="200.5625" y2="220.5625"/><line style="stroke: #038048; stroke-width: 1.5;" x1="152.8" x2="152.8" y1="200.5625" y2="220.5625"/><line style="stroke: #038048; stroke-width: 1.5;" x1="232" x2="232" y1="200.5625" y2="220.5625"/><line style="stroke: #038048; stroke-width: 1.5;" x1="272.8" x2="272.8" y1="200.5625" y2="220.5625"/><line style="stroke: #038048; stroke-width: 1.5;" x1="352" x2="352" y1="200.5625" y2="220.5625"/><line style="stroke: #038048; stroke-width: 1.5;" x1="392.8" x2="392.8" y1="200.5625" y2="220.5625"/><text fill="#000000" font-family="sans-serif" font-size="12" lengthAdjust="spacingAndGlyphs" textLength="37" x="15" y="217.9258">stance</text><text fill="#000000" font-family="sans-serif" font-size="12" lengthAdjust="spacingAndGlyphs" textLength="33" x="15" y="197.9258">swing</text><line style="stroke: #000000; stroke-width: 1.7;" x1="10" x2="417" y1="170.375" y2="170.375"/><text fill="#000000" font-family="sans-serif" font-size="12" lengthAdjust="spacingAndGlyphs" textLength="45" x="15" y="263.0195">Ankle(L)</text><line style="stroke: #000000; stroke-width: 1.0;" x1="10" x2="61" y1="266.6563" y2="266.6563"/><line style="stroke: #000000; stroke-width: 1.0;" x1="61" x2="71" y1="266.6563" y2="250.5625"/><line style="stroke: #038048; stroke-width: 1.5;" x1="52" x2="100" y1="280.75" y2="280.75"/><line style="stroke: #038048; stroke-width: 1.5;" x1="100" x2="118" y1="300.75" y2="300.75"/><line style="stroke: #038048; stroke-width: 1.5;" x1="118" x2="220" y1="280.75" y2="280.75"/><line style="stroke: #038048; stroke-width: 1.5;" x1="220" x2="238" y1="300.75" y2="300.75"/><line style="stroke: #038048; stroke-width: 1.5;" x1="238" x2="340" y1="280.75" y2="280.75"/><line style="stroke: #038048; stroke-width: 1.5;" x1="340" x2="358" y1="300.75" y2="300.75"/><line style="stroke: #038048; stroke-width: 1.5;" x1="358" x2="412" y1="280.75" y2="280.75"/><line style="stroke: #038048; stroke-width: 1.5;" x1="100" x2="100" y1="280.75" y2="300.75"/><line style="stroke: #038048; stroke-width: 1.5;" x1="118" x2="118" y1="280.75" y2="300.75"/><line style="stroke: #038048; stroke-width: 1.5;" x1="220" x2="220" y1="280.75" y2="300.75"/><line style="stroke: #038048; stroke-width: 1.5;" x1="238" x2="238" y1="280.75" y2="300.75"/><line style="stroke: #038048; stroke-width: 1.5;" x1="340" x2="340" y1="280.75" y2="300.75"/><line style="stroke: #038048; stroke-width: 1.5;" x1="358" x2="358" y1="280.75" y2="300.75"/><text fill="#000000" font-family="sans-serif" font-size="12" lengthAdjust="spacingAndGlyphs" textLength="37" x="15" y="298.1133">stance</text><text fill="#000000" font-family="sans-serif" font-size="12" lengthAdjust="spacingAndGlyphs" textLength="33" x="15" y="278.1133">swing</text><line style="stroke: #000000; stroke-width: 1.7;" x1="10" x2="417" y1="250.5625" y2="250.5625"/><text fill="#000000" font-family="sans-serif" font-size="12" lengthAdjust="spacingAndGlyphs" textLength="67" x="15" y="343.207">Shoulder(R)</text><line style="stroke: #000000; stroke-width: 1.0;" x1="10" x2="83" y1="346.8438" y2="346.8438"/><line style="stroke: #000000; stroke-width: 1.0;" x1="83" x2="93" y1="346.8438" y2="330.75"/><line style="stroke: #038048; stroke-width: 1.5;" x1="52" x2="112" y1="380.9375" y2="380.9375"/><line style="stroke: #038048; stroke-width: 1.5;" x1="112" x2="160" y1="360.9375" y2="360.9375"/><line style="stroke: #038048; stroke-width: 1.5;" x1="160" x2="232" y1="380.9375" y2="380.9375"/><line style="stroke: #038048; stroke-width: 1.5;" x1="232" x2="280" y1="360.9375" y2="360.9375"/><line style="stroke: #038048; stroke-width: 1.5;" x1="280" x2="352" y1="380.9375" y2="380.9375"/><line style="stroke: #038048; stroke-width: 1.5;" x1="352" x2="400" y1="360.9375" y2="360.9375"/><line style="stroke: #038048; stroke-width: 1.5;" x1="400" x2="412" y1="380.9375" y2="380.9375"/><line style="stroke: #038048; stroke-width: 1.5;" x1="112" x2="112" y1="360.9375" y2="380.9375"/><line style="stroke: #038048; stroke-width: 1.5;" x1="160" x2="160" y1="360.9375" y2="380.9375"/><line style="stroke: #038048; stroke-width: 1.5;" x1="232" x2="232" y1="360.9375" y2="380.9375"/><line style="stroke: #038048; stroke-width: 1.5;" x1="280" x2="280" y1="360.9375" y2="380.9375"/><line style="stroke: #038048; stroke-width: 1.5;" x1="352" x2="352" y1="360.9375" y2="380.9375"/><line style="stroke: #038048; stroke-width: 1.5;" x1="400" x2="400" y1="360.9375" y2="380.9375"/><text fill="#000000" font-family="sans-serif" font-size="12" lengthAdjust="spacingAndGlyphs" textLength="37" x="15" y="378.3008">stance</text><text fill="#000000" font-family="sans-serif" font-size="12" lengthAdjust="spacingAndGlyphs" textLength="33" x="15" y="358.3008">swing</text><line style="stroke: #000000; stroke-width: 1.7;" x1="10" x2="417" y1="330.75" y2="330.75"/><text fill="#000000" font-family="sans-serif" font-size="12" lengthAdjust="spacingAndGlyphs" textLength="36" x="15" y="423.3945">Hip(R)</text><line style="stroke: #000000; stroke-width: 1.0;" x1="10" x2="52" y1="427.0313" y2="427.0313"/><line style="stroke: #000000; stroke-width: 1.0;" x1="52" x2="62" y1="427.0313" y2="410.9375"/><line style="stroke: #038048; stroke-width: 1.5;" x1="52" x2="104.8" y1="441.125" y2="441.125"/><line style="stroke: #038048; stroke-width: 1.5;" x1="104.8" x2="172" y1="461.125" y2="461.125"/><line style="stroke: #038048; stroke-width: 1.5;" x1="172" x2="224.8" y1="441.125" y2="441.125"/><line style="stroke: #038048; stroke-width: 1.5;" x1="224.8" x2="292" y1="461.125" y2="461.125"/><line style="stroke: #038048; stroke-width: 1.5;" x1="292" x2="344.8" y1="441.125" y2="441.125"/><line style="stroke: #038048; stroke-width: 1.5;" x1="344.8" x2="412" y1="461.125" y2="461.125"/><line style="stroke: #038048; stroke-width: 1.5;" x1="104.8" x2="104.8" y1="441.125" y2="461.125"/><line style="stroke: #038048; stroke-width: 1.5;" x1="172" x2="172" y1="441.125" y2="461.125"/><line style="stroke: #038048; stroke-width: 1.5;" x1="224.8" x2="224.8" y1="441.125" y2="461.125"/><line style="stroke: #038048; stroke-width: 1.5;" x1="292" x2="292" y1="441.125" y2="461.125"/><line style="stroke: #038048; stroke-width: 1.5;" x1="344.8" x2="344.8" y1="441.125" y2="461.125"/><text fill="#000000" font-family="sans-serif" font-size="12" lengthAdjust="spacingAndGlyphs" textLength="37" x="15" y="458.4883">stance</text><text fill="#000000" font-family="sans-serif" font-size="12" lengthAdjust="spacingAndGlyphs" textLength="33" x="15" y="438.4883">swing</text><line style="stroke: #000000; stroke-width: 1.7;" x1="10" x2="417" y1="410.9375" y2="410.9375"/><text fill="#000000" font-family="sans-serif" font-size="12" lengthAdjust="spacingAndGlyphs" textLength="46" x="15" y="503.582">Knee(R)</text><line style="stroke: #000000; stroke-width: 1.0;" x1="10" x2="62" y1="507.2188" y2="507.2188"/><line style="stroke: #000000; stroke-width: 1.0;" x1="62" x2="72" y1="507.2188" y2="491.125"/><line style="stroke: #038048; stroke-width: 1.5;" x1="52" x2="92.8" y1="521.3125" y2="521.3125"/><line style="stroke: #038048; stroke-width: 1.5;" x1="92.8" x2="172" y1="541.3125" y2="541.3125"/><line style="stroke: #038048; stroke-width: 1.5;" x1="172" x2="212.8" y1="521.3125" y2="521.3125"/><line style="stroke: #038048; stroke-width: 1.5;" x1="212.8" x2="292" y1="541.3125" y2="541.3125"/><line style="stroke: #038048; stroke-width: 1.5;" x1="292" x2="332.8" y1="521.3125" y2="521.3125"/><line style="stroke: #038048; stroke-width: 1.5;" x1="332.8" x2="412" y1="541.3125" y2="541.3125"/><line style="stroke: #038048; stroke-width: 1.5;" x1="92.8" x2="92.8" y1="521.3125" y2="541.3125"/><line style="stroke: #038048; stroke-width: 1.5;" x1="172" x2="172" y1="521.3125" y2="541.3125"/><line style="stroke: #038048; stroke-width: 1.5;" x1="212.8" x2="212.8" y1="521.3125" y2="541.3125"/><line style="stroke: #038048; stroke-width: 1.5;" x1="292" x2="292" y1="521.3125" y2="541.3125"/><line style="stroke: #038048; stroke-width: 1.5;" x1="332.8" x2="332.8" y1="521.3125" y2="541.3125"/><text fill="#000000" font-family="sans-serif" font-size="12" lengthAdjust="spacingAndGlyphs" textLength="37" x="15" y="538.6758">stance</text><text fill="#000000" font-family="sans-serif" font-size="12" lengthAdjust="spacingAndGlyphs" textLength="33" x="15" y="518.6758">swing</text><line style="stroke: #000000; stroke-width: 1.7;" x1="10" x2="417" y1="491.125" y2="491.125"/><text fill="#000000" font-family="sans-serif" font-size="12" lengthAdjust="spacingAndGlyphs" textLength="47" x="15" y="583.7695">Ankle(R)</text><line style="stroke: #000000; stroke-width: 1.0;" x1="10" x2="63" y1="587.4063" y2="587.4063"/><line style="stroke: #000000; stroke-width: 1.0;" x1="63" x2="73" y1="587.4063" y2="571.3125"/><line style="stroke: #038048; stroke-width: 1.5;" x1="52" x2="58" y1="621.5" y2="621.5"/><line style="stroke: #038048; stroke-width: 1.5;" x1="58" x2="160" y1="601.5" y2="601.5"/><line style="stroke: #038048; stroke-width: 1.5;" x1="160" x2="178" y1="621.5" y2="621.5"/><line style="stroke: #038048; stroke-width: 1.5;" x1="178" x2="280" y1="601.5" y2="601.5"/><line style="stroke: #038048; stroke-width: 1.5;" x1="280" x2="298" y1="621.5" y2="621.5"/><line style="stroke: #038048; stroke-width: 1.5;" x1="298" x2="400" y1="601.5" y2="601.5"/><line style="stroke: #038048; stroke-width: 1.5;" x1="400" x2="412" y1="621.5" y2="621.5"/><line style="stroke: #038048; stroke-width: 1.5;" x1="58" x2="58" y1="601.5" y2="621.5"/><line style="stroke: #038048; stroke-width: 1.5;" x1="160" x2="160" y1="601.5" y2="621.5"/><line style="stroke: #038048; stroke-width: 1.5;" x1="178" x2="178" y1="601.5" y2="621.5"/><line style="stroke: #038048; stroke-width: 1.5;" x1="280" x2="280" y1="601.5" y2="621.5"/><line style="stroke: #038048; stroke-width: 1.5;" x1="298" x2="298" y1="601.5" y2="621.5"/><line style="stroke: #038048; stroke-width: 1.5;" x1="400" x2="400" y1="601.5" y2="621.5"/><text fill="#000000" font-family="sans-serif" font-size="12" lengthAdjust="spacingAndGlyphs" textLength="37" x="15" y="618.8633">stance</text><text fill="#000000" font-family="sans-serif" font-size="12" lengthAdjust="spacingAndGlyphs" textLength="33" x="15" y="598.8633">swing</text><line style="stroke: #000000; stroke-width: 1.7;" x1="10" x2="417" y1="571.3125" y2="571.3125"/><line style="stroke: #000000; stroke-width: 2.0;" x1="52" x2="52" y1="651.5" y2="656.5"/><line style="stroke: #000000; stroke-width: 2.0;" x1="172" x2="172" y1="651.5" y2="656.5"/><line style="stroke: #000000; stroke-width: 2.0;" x1="292" x2="292" y1="651.5" y2="656.5"/><line style="stroke: #000000; stroke-width: 2.0;" x1="412" x2="412" y1="651.5" y2="656.5"/><line style="stroke: #000000; stroke-width: 2.0;" x1="52" x2="412" y1="651.5" y2="651.5"/><text fill="#000000" font-family="sans-serif" font-size="12" lengthAdjust="spacingAndGlyphs" textLength="7" x="48.5" y="669.957">0</text><text fill="#000000" font-family="sans-serif" font-size="12" lengthAdjust="spacingAndGlyphs" textLength="7" x="168.5" y="669.957">1</text><text fill="#000000" font-family="sans-serif" font-size="12" lengthAdjust="spacingAndGlyphs" textLength="7" x="288.5" y="669.957">2</text><text fill="#000000" font-family="sans-serif" font-size="12" lengthAdjust="spacingAndGlyphs" textLength="7" x="408.5" y="669.957">3</text><text fill="#000000" font-family="sans-serif" font-size="14" lengthAdjust="spacingAndGlyphs" textLength="384" x="21.5" y="681.127">Note that the time scale is normalized to "1/cycle". (i.e phase)</text><!--
@startuml
robust "Shoulder(L)" as LS
robust "Hip(L)" as LH
robust "Knee(L)" as LK
robust "Ankle(L)" as LA
robust "Shoulder(R)" as RS
robust "Hip(R)" as RH
robust "Knee(R)" as RK
robust "Ankle(R)" as RA
scale 1 as 120 pixels

LS has swing,stance
LH has swing,stance
LK has swing,stance
LA has swing,stance
RS has swing,stance
RH has swing,stance
RK has swing,stance
RA has swing,stance

@LS
0.0 is swing
+0.40 is stance
+0.60 is swing
+0.40 is stance
+0.60 is swing
+0.40 is stance

@LH
0.0 is stance
0.5 is swing
+0.44 is stance
+0.56 is swing
+0.44 is stance
+0.56 is swing
+0.44 is stance

@LK
0.0 is stance
0.5 is swing
+0.34 is stance
+0.66 is swing
+0.34 is stance
+0.66 is swing
+0.34 is stance

@LA
0.0 is swing
0.40 is stance
+0.15 is swing
+0.85 is stance
+0.15 is swing
+0.85 is stance
+0.15 is swing

@RS
0.0 is stance
0.5 is swing
+0.40 is stance
+0.60 is swing
+0.40 is stance
+0.60 is swing
+0.40 is stance

@RH
0.0 is swing
+0.44 is stance
+0.56 is swing
+0.44 is stance
+0.56 is swing
+0.44 is stance

@RK
0.0 is swing
+0.34 is stance
+0.66 is swing
+0.34 is stance
+0.66 is swing
+0.34 is stance

@RA
0.0 is stance
0.05 is swing
+0.85 is stance
+0.15 is swing
+0.85 is stance
+0.15 is swing
+0.85 is stance

caption Note that the time scale is normalized to "1/cycle". (i.e phase)
@enduml

PlantUML version 1.2019.03(Sun Mar 10 20:04:44 JST 2019)
(GPL source distribution)
Java Runtime: Java(TM) SE Runtime Environment
JVM: Java HotSpot(TM) 64-Bit Server VM
Java Version: 1.8.0_201-b09
Operating System: Windows 10
OS Version: 10.0
Default Encoding: MS932
Language: ja
Country: JP
--></g></svg>