<?xml version="1.0" encoding="UTF-8" standalone="no"?><svg xmlns="http://www.w3.org/2000/svg" xmlns:xlink="http://www.w3.org/1999/xlink" contentScriptType="application/ecmascript" contentStyleType="text/css" height="293px" preserveAspectRatio="none" style="width:429px;height:293px;" version="1.1" viewBox="0 0 429 293" width="429px" zoomAndPan="magnify"><defs/><g><line style="stroke: #000000; stroke-width: 1.7;" x1="10" x2="10" y1="10" y2="250.5625"/><line style="stroke: #000000; stroke-width: 1.7;" x1="417" x2="417" y1="10" y2="250.5625"/><line style="stroke: #AAAAAA; stroke-width: 0.5; stroke-dasharray: 3.0,5.0;" x1="52" x2="52" y1="10" y2="250.5625"/><line style="stroke: #AAAAAA; stroke-width: 0.5; stroke-dasharray: 3.0,5.0;" x1="172" x2="172" y1="10" y2="250.5625"/><line style="stroke: #AAAAAA; stroke-width: 0.5; stroke-dasharray: 3.0,5.0;" x1="292" x2="292" y1="10" y2="250.5625"/><line style="stroke: #AAAAAA; stroke-width: 0.5; stroke-dasharray: 3.0,5.0;" x1="412" x2="412" y1="10" y2="250.5625"/><text fill="#000000" font-family="sans-serif" font-size="12" lengthAdjust="spacingAndGlyphs" textLength="36" x="15" y="22.457">Hip(R)</text><line style="stroke: #000000; stroke-width: 1.0;" x1="10" x2="52" y1="26.0938" y2="26.0938"/><line style="stroke: #000000; stroke-width: 1.0;" x1="52" x2="62" y1="26.0938" y2="10"/><line style="stroke: #038048; stroke-width: 1.5;" x1="52" x2="104.8" y1="40.1875" y2="40.1875"/><line style="stroke: #038048; stroke-width: 1.5;" x1="104.8" x2="172" y1="60.1875" y2="60.1875"/><line style="stroke: #038048; stroke-width: 1.5;" x1="172" x2="224.8" y1="40.1875" y2="40.1875"/><line style="stroke: #038048; stroke-width: 1.5;" x1="224.8" x2="292" y1="60.1875" y2="60.1875"/><line style="stroke: #038048; stroke-width: 1.5;" x1="292" x2="344.8" y1="40.1875" y2="40.1875"/><line style="stroke: #038048; stroke-width: 1.5;" x1="344.8" x2="412" y1="60.1875" y2="60.1875"/><line style="stroke: #038048; stroke-width: 1.5;" x1="104.8" x2="104.8" y1="40.1875" y2="60.1875"/><line style="stroke: #038048; stroke-width: 1.5;" x1="172" x2="172" y1="40.1875" y2="60.1875"/><line style="stroke: #038048; stroke-width: 1.5;" x1="224.8" x2="224.8" y1="40.1875" y2="60.1875"/><line style="stroke: #038048; stroke-width: 1.5;" x1="292" x2="292" y1="40.1875" y2="60.1875"/><line style="stroke: #038048; stroke-width: 1.5;" x1="344.8" x2="344.8" y1="40.1875" y2="60.1875"/><line style="stroke: #FF0000; stroke-width: 1.5;" x1="172" x2="224.8" y1="30.1875" y2="30.1875"/><polygon fill="#FF0000" points="179.5175,27.4513,179.5175,32.9237,172,30.1875" style="stroke: #FF0000; stroke-width: 1.5;"/><polygon fill="#FF0000" points="217.2825,32.9237,217.2825,27.4513,224.8,30.1875" style="stroke: #FF0000; stroke-width: 1.5;"/><text fill="#000000" font-family="Serif" font-size="14" lengthAdjust="spacingAndGlyphs" textLength="27" x="184.9" y="22.1113">bend</text><line style="stroke: #FF0000; stroke-width: 1.5;" x1="224.8" x2="292" y1="50.1875" y2="50.1875"/><polygon fill="#FF0000" points="232.3175,47.4513,232.3175,52.9237,224.8,50.1875" style="stroke: #FF0000; stroke-width: 1.5;"/><polygon fill="#FF0000" points="284.4825,52.9237,284.4825,47.4513,292,50.1875" style="stroke: #FF0000; stroke-width: 1.5;"/><text fill="#000000" font-family="Serif" font-size="14" lengthAdjust="spacingAndGlyphs" textLength="39" x="238.9" y="42.1113">stretch</text><text fill="#000000" font-family="sans-serif" font-size="12" lengthAdjust="spacingAndGlyphs" textLength="37" x="15" y="57.5508">stance</text><text fill="#000000" font-family="sans-serif" font-size="12" lengthAdjust="spacingAndGlyphs" textLength="33" x="15" y="37.5508">swing</text><line style="stroke: #000000; stroke-width: 1.7;" x1="10" x2="417" y1="10" y2="10"/><text fill="#000000" font-family="sans-serif" font-size="12" lengthAdjust="spacingAndGlyphs" textLength="46" x="15" y="102.6445">Knee(R)</text><line style="stroke: #000000; stroke-width: 1.0;" x1="10" x2="62" y1="106.2813" y2="106.2813"/><line style="stroke: #000000; stroke-width: 1.0;" x1="62" x2="72" y1="106.2813" y2="90.1875"/><line style="stroke: #038048; stroke-width: 1.5;" x1="52" x2="92.8" y1="120.375" y2="120.375"/><line style="stroke: #038048; stroke-width: 1.5;" x1="92.8" x2="172" y1="140.375" y2="140.375"/><line style="stroke: #038048; stroke-width: 1.5;" x1="172" x2="212.8" y1="120.375" y2="120.375"/><line style="stroke: #038048; stroke-width: 1.5;" x1="212.8" x2="292" y1="140.375" y2="140.375"/><line style="stroke: #038048; stroke-width: 1.5;" x1="292" x2="332.8" y1="120.375" y2="120.375"/><line style="stroke: #038048; stroke-width: 1.5;" x1="332.8" x2="412" y1="140.375" y2="140.375"/><line style="stroke: #038048; stroke-width: 1.5;" x1="92.8" x2="92.8" y1="120.375" y2="140.375"/><line style="stroke: #038048; stroke-width: 1.5;" x1="172" x2="172" y1="120.375" y2="140.375"/><line style="stroke: #038048; stroke-width: 1.5;" x1="212.8" x2="212.8" y1="120.375" y2="140.375"/><line style="stroke: #038048; stroke-width: 1.5;" x1="292" x2="292" y1="120.375" y2="140.375"/><line style="stroke: #038048; stroke-width: 1.5;" x1="332.8" x2="332.8" y1="120.375" y2="140.375"/><line style="stroke: #FF0000; stroke-width: 1.5;" x1="172" x2="212.8" y1="110.375" y2="110.375"/><polygon fill="#FF0000" points="179.5175,107.6388,179.5175,113.1112,172,110.375" style="stroke: #FF0000; stroke-width: 1.5;"/><polygon fill="#FF0000" points="205.2825,113.1112,205.2825,107.6388,212.8,110.375" style="stroke: #FF0000; stroke-width: 1.5;"/><text fill="#000000" font-family="Serif" font-size="14" lengthAdjust="spacingAndGlyphs" textLength="27" x="178.9" y="102.2988">bend</text><line style="stroke: #FF0000; stroke-width: 1.5;" x1="212.8" x2="292" y1="130.375" y2="130.375"/><polygon fill="#FF0000" points="220.3175,127.6388,220.3175,133.1112,212.8,130.375" style="stroke: #FF0000; stroke-width: 1.5;"/><polygon fill="#FF0000" points="284.4825,133.1112,284.4825,127.6388,292,130.375" style="stroke: #FF0000; stroke-width: 1.5;"/><text fill="#000000" font-family="Serif" font-size="14" lengthAdjust="spacingAndGlyphs" textLength="39" x="232.9" y="122.2988">stretch</text><text fill="#000000" font-family="sans-serif" font-size="12" lengthAdjust="spacingAndGlyphs" textLength="37" x="15" y="137.7383">stance</text><text fill="#000000" font-family="sans-serif" font-size="12" lengthAdjust="spacingAndGlyphs" textLength="33" x="15" y="117.7383">swing</text><line style="stroke: #000000; stroke-width: 1.7;" x1="10" x2="417" y1="90.1875" y2="90.1875"/><text fill="#000000" font-family="sans-serif" font-size="12" lengthAdjust="spacingAndGlyphs" textLength="47" x="15" y="182.832">Ankle(R)</text><line style="stroke: #000000; stroke-width: 1.0;" x1="10" x2="63" y1="186.4688" y2="186.4688"/><line style="stroke: #000000; stroke-width: 1.0;" x1="63" x2="73" y1="186.4688" y2="170.375"/><line style="stroke: #038048; stroke-width: 1.5;" x1="52" x2="58" y1="220.5625" y2="220.5625"/><line style="stroke: #038048; stroke-width: 1.5;" x1="58" x2="160" y1="200.5625" y2="200.5625"/><line style="stroke: #038048; stroke-width: 1.5;" x1="160" x2="178" y1="220.5625" y2="220.5625"/><line style="stroke: #038048; stroke-width: 1.5;" x1="178" x2="280" y1="200.5625" y2="200.5625"/><line style="stroke: #038048; stroke-width: 1.5;" x1="280" x2="298" y1="220.5625" y2="220.5625"/><line style="stroke: #038048; stroke-width: 1.5;" x1="298" x2="400" y1="200.5625" y2="200.5625"/><line style="stroke: #038048; stroke-width: 1.5;" x1="400" x2="412" y1="220.5625" y2="220.5625"/><line style="stroke: #038048; stroke-width: 1.5;" x1="58" x2="58" y1="200.5625" y2="220.5625"/><line style="stroke: #038048; stroke-width: 1.5;" x1="160" x2="160" y1="200.5625" y2="220.5625"/><line style="stroke: #038048; stroke-width: 1.5;" x1="178" x2="178" y1="200.5625" y2="220.5625"/><line style="stroke: #038048; stroke-width: 1.5;" x1="280" x2="280" y1="200.5625" y2="220.5625"/><line style="stroke: #038048; stroke-width: 1.5;" x1="298" x2="298" y1="200.5625" y2="220.5625"/><line style="stroke: #038048; stroke-width: 1.5;" x1="400" x2="400" y1="200.5625" y2="220.5625"/><line style="stroke: #FF0000; stroke-width: 1.5;" x1="178" x2="280" y1="190.5625" y2="190.5625"/><polygon fill="#FF0000" points="185.5175,187.8263,185.5175,193.2987,178,190.5625" style="stroke: #FF0000; stroke-width: 1.5;"/><polygon fill="#FF0000" points="272.4825,193.2987,272.4825,187.8263,280,190.5625" style="stroke: #FF0000; stroke-width: 1.5;"/><text fill="#000000" font-family="Serif" font-size="14" lengthAdjust="spacingAndGlyphs" textLength="27" x="215.5" y="182.4863">bend</text><line style="stroke: #FF0000; stroke-width: 1.5;" x1="280" x2="298" y1="210.5625" y2="210.5625"/><polygon fill="#FF0000" points="287.5175,207.8263,287.5175,213.2987,280,210.5625" style="stroke: #FF0000; stroke-width: 1.5;"/><polygon fill="#FF0000" points="290.4825,213.2987,290.4825,207.8263,298,210.5625" style="stroke: #FF0000; stroke-width: 1.5;"/><text fill="#000000" font-family="Serif" font-size="14" lengthAdjust="spacingAndGlyphs" textLength="39" x="269.5" y="202.4863">stretch</text><text fill="#000000" font-family="sans-serif" font-size="12" lengthAdjust="spacingAndGlyphs" textLength="37" x="15" y="217.9258">stance</text><text fill="#000000" font-family="sans-serif" font-size="12" lengthAdjust="spacingAndGlyphs" textLength="33" x="15" y="197.9258">swing</text><line style="stroke: #000000; stroke-width: 1.7;" x1="10" x2="417" y1="170.375" y2="170.375"/><line style="stroke: #000000; stroke-width: 2.0;" x1="52" x2="52" y1="250.5625" y2="255.5625"/><line style="stroke: #000000; stroke-width: 2.0;" x1="172" x2="172" y1="250.5625" y2="255.5625"/><line style="stroke: #000000; stroke-width: 2.0;" x1="292" x2="292" y1="250.5625" y2="255.5625"/><line style="stroke: #000000; stroke-width: 2.0;" x1="412" x2="412" y1="250.5625" y2="255.5625"/><line style="stroke: #000000; stroke-width: 2.0;" x1="52" x2="412" y1="250.5625" y2="250.5625"/><text fill="#000000" font-family="sans-serif" font-size="12" lengthAdjust="spacingAndGlyphs" textLength="7" x="48.5" y="269.0195">0</text><text fill="#000000" font-family="sans-serif" font-size="12" lengthAdjust="spacingAndGlyphs" textLength="7" x="168.5" y="269.0195">1</text><text fill="#000000" font-family="sans-serif" font-size="12" lengthAdjust="spacingAndGlyphs" textLength="7" x="288.5" y="269.0195">2</text><text fill="#000000" font-family="sans-serif" font-size="12" lengthAdjust="spacingAndGlyphs" textLength="7" x="408.5" y="269.0195">3</text><text fill="#000000" font-family="sans-serif" font-size="14" lengthAdjust="spacingAndGlyphs" textLength="384" x="21.5" y="280.1895">Note that the time scale is normalized to "1/cycle". (i.e phase)</text><!--
@startuml
robust "Hip(R)" as RH
robust "Knee(R)" as RK
robust "Ankle(R)" as RA
scale 1 as 120 pixels

RH has swing,stance
RK has swing,stance
RA has swing,stance

@RH
0.0 is swing
+0.44 is stance
+0.56 is swing
+0.44 is stance
+0.56 is swing
+0.44 is stance
RH@1.0 <-> @1.44 : bend
RH@1.44 <-> @2.0 : stretch

@RK
0.0 is swing
+0.34 is stance
+0.66 is swing
+0.34 is stance
+0.66 is swing
+0.34 is stance
RK@1.0 <-> @1.34 : bend
RK@1.34 <-> @2.0 : stretch

@RA
0.0 is stance
0.05 is swing
+0.85 is stance
+0.15 is swing
+0.85 is stance
+0.15 is swing
+0.85 is stance
RA@1.05 <-> @1.9 : bend
RA@1.9 <-> @2.05 : stretch

caption Note that the time scale is normalized to "1/cycle". (i.e phase)
@enduml

PlantUML version 1.2019.03(Sun Mar 10 20:04:44 JST 2019)
(GPL source distribution)
Java Runtime: Java(TM) SE Runtime Environment
JVM: Java HotSpot(TM) 64-Bit Server VM
Java Version: 1.8.0_201-b09
Operating System: Windows 10
OS Version: 10.0
Default Encoding: MS932
Language: ja
Country: JP
--></g></svg>