<?xml version="1.0" encoding="UTF-8" standalone="no"?><svg xmlns="http://www.w3.org/2000/svg" xmlns:xlink="http://www.w3.org/1999/xlink" contentScriptType="application/ecmascript" contentStyleType="text/css" height="293px" preserveAspectRatio="none" style="width:429px;height:293px;" version="1.1" viewBox="0 0 429 293" width="429px" zoomAndPan="magnify"><defs/><g><line style="stroke: #000000; stroke-width: 1.7;" x1="10" x2="10" y1="10" y2="250.5625"/><line style="stroke: #000000; stroke-width: 1.7;" x1="417" x2="417" y1="10" y2="250.5625"/><line style="stroke: #AAAAAA; stroke-width: 0.5; stroke-dasharray: 3.0,5.0;" x1="52" x2="52" y1="10" y2="250.5625"/><line style="stroke: #AAAAAA; stroke-width: 0.5; stroke-dasharray: 3.0,5.0;" x1="172" x2="172" y1="10" y2="250.5625"/><line style="stroke: #AAAAAA; stroke-width: 0.5; stroke-dasharray: 3.0,5.0;" x1="292" x2="292" y1="10" y2="250.5625"/><line style="stroke: #AAAAAA; stroke-width: 0.5; stroke-dasharray: 3.0,5.0;" x1="412" x2="412" y1="10" y2="250.5625"/><text fill="#000000" font-family="sans-serif" font-size="12" lengthAdjust="spacingAndGlyphs" textLength="34" x="15" y="22.457">Hip(L)</text><line style="stroke: #000000; stroke-width: 1.0;" x1="10" x2="50" y1="26.0938" y2="26.0938"/><line style="stroke: #000000; stroke-width: 1.0;" x1="50" x2="60" y1="26.0938" y2="10"/><line style="stroke: #038048; stroke-width: 1.5;" x1="52" x2="112" y1="60.1875" y2="60.1875"/><line style="stroke: #038048; stroke-width: 1.5;" x1="112" x2="164.8" y1="40.1875" y2="40.1875"/><line style="stroke: #038048; stroke-width: 1.5;" x1="164.8" x2="232" y1="60.1875" y2="60.1875"/><line style="stroke: #038048; stroke-width: 1.5;" x1="232" x2="284.8" y1="40.1875" y2="40.1875"/><line style="stroke: #038048; stroke-width: 1.5;" x1="284.8" x2="352" y1="60.1875" y2="60.1875"/><line style="stroke: #038048; stroke-width: 1.5;" x1="352" x2="404.8" y1="40.1875" y2="40.1875"/><line style="stroke: #038048; stroke-width: 1.5;" x1="404.8" x2="412" y1="60.1875" y2="60.1875"/><line style="stroke: #038048; stroke-width: 1.5;" x1="112" x2="112" y1="40.1875" y2="60.1875"/><line style="stroke: #038048; stroke-width: 1.5;" x1="164.8" x2="164.8" y1="40.1875" y2="60.1875"/><line style="stroke: #038048; stroke-width: 1.5;" x1="232" x2="232" y1="40.1875" y2="60.1875"/><line style="stroke: #038048; stroke-width: 1.5;" x1="284.8" x2="284.8" y1="40.1875" y2="60.1875"/><line style="stroke: #038048; stroke-width: 1.5;" x1="352" x2="352" y1="40.1875" y2="60.1875"/><line style="stroke: #038048; stroke-width: 1.5;" x1="404.8" x2="404.8" y1="40.1875" y2="60.1875"/><line style="stroke: #FF0000; stroke-width: 1.5;" x1="112" x2="164.8" y1="30.1875" y2="30.1875"/><polygon fill="#FF0000" points="119.5175,27.4513,119.5175,32.9237,112,30.1875" style="stroke: #FF0000; stroke-width: 1.5;"/><polygon fill="#FF0000" points="157.2825,32.9237,157.2825,27.4513,164.8,30.1875" style="stroke: #FF0000; stroke-width: 1.5;"/><text fill="#000000" font-family="Serif" font-size="14" lengthAdjust="spacingAndGlyphs" textLength="27" x="124.9" y="22.1113">bend</text><line style="stroke: #FF0000; stroke-width: 1.5;" x1="164.8" x2="232" y1="50.1875" y2="50.1875"/><polygon fill="#FF0000" points="172.3175,47.4513,172.3175,52.9237,164.8,50.1875" style="stroke: #FF0000; stroke-width: 1.5;"/><polygon fill="#FF0000" points="224.4825,52.9237,224.4825,47.4513,232,50.1875" style="stroke: #FF0000; stroke-width: 1.5;"/><text fill="#000000" font-family="Serif" font-size="14" lengthAdjust="spacingAndGlyphs" textLength="39" x="178.9" y="42.1113">stretch</text><text fill="#000000" font-family="sans-serif" font-size="12" lengthAdjust="spacingAndGlyphs" textLength="37" x="15" y="57.5508">stance</text><text fill="#000000" font-family="sans-serif" font-size="12" lengthAdjust="spacingAndGlyphs" textLength="33" x="15" y="37.5508">swing</text><line style="stroke: #000000; stroke-width: 1.7;" x1="10" x2="417" y1="10" y2="10"/><text fill="#000000" font-family="sans-serif" font-size="12" lengthAdjust="spacingAndGlyphs" textLength="44" x="15" y="102.6445">Knee(L)</text><line style="stroke: #000000; stroke-width: 1.0;" x1="10" x2="60" y1="106.2813" y2="106.2813"/><line style="stroke: #000000; stroke-width: 1.0;" x1="60" x2="70" y1="106.2813" y2="90.1875"/><line style="stroke: #038048; stroke-width: 1.5;" x1="52" x2="112" y1="140.375" y2="140.375"/><line style="stroke: #038048; stroke-width: 1.5;" x1="112" x2="152.8" y1="120.375" y2="120.375"/><line style="stroke: #038048; stroke-width: 1.5;" x1="152.8" x2="232" y1="140.375" y2="140.375"/><line style="stroke: #038048; stroke-width: 1.5;" x1="232" x2="272.8" y1="120.375" y2="120.375"/><line style="stroke: #038048; stroke-width: 1.5;" x1="272.8" x2="352" y1="140.375" y2="140.375"/><line style="stroke: #038048; stroke-width: 1.5;" x1="352" x2="392.8" y1="120.375" y2="120.375"/><line style="stroke: #038048; stroke-width: 1.5;" x1="392.8" x2="412" y1="140.375" y2="140.375"/><line style="stroke: #038048; stroke-width: 1.5;" x1="112" x2="112" y1="120.375" y2="140.375"/><line style="stroke: #038048; stroke-width: 1.5;" x1="152.8" x2="152.8" y1="120.375" y2="140.375"/><line style="stroke: #038048; stroke-width: 1.5;" x1="232" x2="232" y1="120.375" y2="140.375"/><line style="stroke: #038048; stroke-width: 1.5;" x1="272.8" x2="272.8" y1="120.375" y2="140.375"/><line style="stroke: #038048; stroke-width: 1.5;" x1="352" x2="352" y1="120.375" y2="140.375"/><line style="stroke: #038048; stroke-width: 1.5;" x1="392.8" x2="392.8" y1="120.375" y2="140.375"/><line style="stroke: #FF0000; stroke-width: 1.5;" x1="112" x2="152.8" y1="110.375" y2="110.375"/><polygon fill="#FF0000" points="119.5175,107.6388,119.5175,113.1112,112,110.375" style="stroke: #FF0000; stroke-width: 1.5;"/><polygon fill="#FF0000" points="145.2825,113.1112,145.2825,107.6388,152.8,110.375" style="stroke: #FF0000; stroke-width: 1.5;"/><text fill="#000000" font-family="Serif" font-size="14" lengthAdjust="spacingAndGlyphs" textLength="27" x="118.9" y="102.2988">bend</text><line style="stroke: #FF0000; stroke-width: 1.5;" x1="152.8" x2="232" y1="130.375" y2="130.375"/><polygon fill="#FF0000" points="160.3175,127.6388,160.3175,133.1112,152.8,130.375" style="stroke: #FF0000; stroke-width: 1.5;"/><polygon fill="#FF0000" points="224.4825,133.1112,224.4825,127.6388,232,130.375" style="stroke: #FF0000; stroke-width: 1.5;"/><text fill="#000000" font-family="Serif" font-size="14" lengthAdjust="spacingAndGlyphs" textLength="39" x="172.9" y="122.2988">stretch</text><text fill="#000000" font-family="sans-serif" font-size="12" lengthAdjust="spacingAndGlyphs" textLength="37" x="15" y="137.7383">stance</text><text fill="#000000" font-family="sans-serif" font-size="12" lengthAdjust="spacingAndGlyphs" textLength="33" x="15" y="117.7383">swing</text><line style="stroke: #000000; stroke-width: 1.7;" x1="10" x2="417" y1="90.1875" y2="90.1875"/><text fill="#000000" font-family="sans-serif" font-size="12" lengthAdjust="spacingAndGlyphs" textLength="45" x="15" y="182.832">Ankle(L)</text><line style="stroke: #000000; stroke-width: 1.0;" x1="10" x2="61" y1="186.4688" y2="186.4688"/><line style="stroke: #000000; stroke-width: 1.0;" x1="61" x2="71" y1="186.4688" y2="170.375"/><line style="stroke: #038048; stroke-width: 1.5;" x1="52" x2="100" y1="200.5625" y2="200.5625"/><line style="stroke: #038048; stroke-width: 1.5;" x1="100" x2="118" y1="220.5625" y2="220.5625"/><line style="stroke: #038048; stroke-width: 1.5;" x1="118" x2="220" y1="200.5625" y2="200.5625"/><line style="stroke: #038048; stroke-width: 1.5;" x1="220" x2="238" y1="220.5625" y2="220.5625"/><line style="stroke: #038048; stroke-width: 1.5;" x1="238" x2="340" y1="200.5625" y2="200.5625"/><line style="stroke: #038048; stroke-width: 1.5;" x1="340" x2="358" y1="220.5625" y2="220.5625"/><line style="stroke: #038048; stroke-width: 1.5;" x1="358" x2="412" y1="200.5625" y2="200.5625"/><line style="stroke: #038048; stroke-width: 1.5;" x1="100" x2="100" y1="200.5625" y2="220.5625"/><line style="stroke: #038048; stroke-width: 1.5;" x1="118" x2="118" y1="200.5625" y2="220.5625"/><line style="stroke: #038048; stroke-width: 1.5;" x1="220" x2="220" y1="200.5625" y2="220.5625"/><line style="stroke: #038048; stroke-width: 1.5;" x1="238" x2="238" y1="200.5625" y2="220.5625"/><line style="stroke: #038048; stroke-width: 1.5;" x1="340" x2="340" y1="200.5625" y2="220.5625"/><line style="stroke: #038048; stroke-width: 1.5;" x1="358" x2="358" y1="200.5625" y2="220.5625"/><line style="stroke: #FF0000; stroke-width: 1.5;" x1="118" x2="220" y1="190.5625" y2="190.5625"/><polygon fill="#FF0000" points="125.5175,187.8263,125.5175,193.2987,118,190.5625" style="stroke: #FF0000; stroke-width: 1.5;"/><polygon fill="#FF0000" points="212.4825,193.2987,212.4825,187.8263,220,190.5625" style="stroke: #FF0000; stroke-width: 1.5;"/><text fill="#000000" font-family="Serif" font-size="14" lengthAdjust="spacingAndGlyphs" textLength="27" x="155.5" y="182.4863">bend</text><line style="stroke: #FF0000; stroke-width: 1.5;" x1="220" x2="238" y1="210.5625" y2="210.5625"/><polygon fill="#FF0000" points="227.5175,207.8263,227.5175,213.2987,220,210.5625" style="stroke: #FF0000; stroke-width: 1.5;"/><polygon fill="#FF0000" points="230.4825,213.2987,230.4825,207.8263,238,210.5625" style="stroke: #FF0000; stroke-width: 1.5;"/><text fill="#000000" font-family="Serif" font-size="14" lengthAdjust="spacingAndGlyphs" textLength="39" x="209.5" y="202.4863">stretch</text><text fill="#000000" font-family="sans-serif" font-size="12" lengthAdjust="spacingAndGlyphs" textLength="37" x="15" y="217.9258">stance</text><text fill="#000000" font-family="sans-serif" font-size="12" lengthAdjust="spacingAndGlyphs" textLength="33" x="15" y="197.9258">swing</text><line style="stroke: #000000; stroke-width: 1.7;" x1="10" x2="417" y1="170.375" y2="170.375"/><line style="stroke: #000000; stroke-width: 2.0;" x1="52" x2="52" y1="250.5625" y2="255.5625"/><line style="stroke: #000000; stroke-width: 2.0;" x1="172" x2="172" y1="250.5625" y2="255.5625"/><line style="stroke: #000000; stroke-width: 2.0;" x1="292" x2="292" y1="250.5625" y2="255.5625"/><line style="stroke: #000000; stroke-width: 2.0;" x1="412" x2="412" y1="250.5625" y2="255.5625"/><line style="stroke: #000000; stroke-width: 2.0;" x1="52" x2="412" y1="250.5625" y2="250.5625"/><text fill="#000000" font-family="sans-serif" font-size="12" lengthAdjust="spacingAndGlyphs" textLength="7" x="48.5" y="269.0195">0</text><text fill="#000000" font-family="sans-serif" font-size="12" lengthAdjust="spacingAndGlyphs" textLength="7" x="168.5" y="269.0195">1</text><text fill="#000000" font-family="sans-serif" font-size="12" lengthAdjust="spacingAndGlyphs" textLength="7" x="288.5" y="269.0195">2</text><text fill="#000000" font-family="sans-serif" font-size="12" lengthAdjust="spacingAndGlyphs" textLength="7" x="408.5" y="269.0195">3</text><text fill="#000000" font-family="sans-serif" font-size="14" lengthAdjust="spacingAndGlyphs" textLength="384" x="21.5" y="280.1895">Note that the time scale is normalized to "1/cycle". (i.e phase)</text><!--
@startuml
robust "Hip(L)" as LH
robust "Knee(L)" as LK
robust "Ankle(L)" as LA
scale 1 as 120 pixels

LH has swing,stance
LK has swing,stance
LA has swing,stance

@LH
0.0 is stance
0.5 is swing
+0.44 is stance
+0.56 is swing
+0.44 is stance
+0.56 is swing
+0.44 is stance
LH@0.5 <-> @0.94 : bend
LH@0.94 <-> @1.5 : stretch

@LK
0.0 is stance
0.5 is swing
+0.34 is stance
+0.66 is swing
+0.34 is stance
+0.66 is swing
+0.34 is stance
LK@0.5 <-> @0.84 : bend
LK@0.84 <-> @1.5 : stretch

@LA
0.0 is swing
0.40 is stance
+0.15 is swing
+0.85 is stance
+0.15 is swing
+0.85 is stance
+0.15 is swing
LA@0.55 <-> @1.4 : bend
LA@1.4 <-> @1.55 : stretch

caption Note that the time scale is normalized to "1/cycle". (i.e phase)
@enduml

PlantUML version 1.2019.03(Sun Mar 10 20:04:44 JST 2019)
(GPL source distribution)
Java Runtime: Java(TM) SE Runtime Environment
JVM: Java HotSpot(TM) 64-Bit Server VM
Java Version: 1.8.0_201-b09
Operating System: Windows 10
OS Version: 10.0
Default Encoding: MS932
Language: ja
Country: JP
--></g></svg>