<?xml version="1.0" encoding="UTF-8" standalone="no"?><svg xmlns="http://www.w3.org/2000/svg" xmlns:xlink="http://www.w3.org/1999/xlink" contentScriptType="application/ecmascript" contentStyleType="text/css" height="187px" preserveAspectRatio="none" style="width:469px;height:187px;" version="1.1" viewBox="0 0 469 187" width="469px" zoomAndPan="magnify"><defs/><g><line style="stroke: #000000; stroke-width: 1.7;" x1="10" x2="10" y1="10" y2="90.1875"/><line style="stroke: #000000; stroke-width: 1.7;" x1="457" x2="457" y1="10" y2="90.1875"/><line style="stroke: #AAAAAA; stroke-width: 0.5; stroke-dasharray: 3.0,5.0;" x1="92" x2="92" y1="10" y2="90.1875"/><line style="stroke: #AAAAAA; stroke-width: 0.5; stroke-dasharray: 3.0,5.0;" x1="212" x2="212" y1="10" y2="90.1875"/><line style="stroke: #AAAAAA; stroke-width: 0.5; stroke-dasharray: 3.0,5.0;" x1="332" x2="332" y1="10" y2="90.1875"/><line style="stroke: #AAAAAA; stroke-width: 0.5; stroke-dasharray: 3.0,5.0;" x1="452" x2="452" y1="10" y2="90.1875"/><text fill="#000000" font-family="sans-serif" font-size="12" lengthAdjust="spacingAndGlyphs" textLength="123" x="15" y="22.457">A state machine (STM)</text><line style="stroke: #000000; stroke-width: 1.0;" x1="10" x2="139" y1="26.0938" y2="26.0938"/><line style="stroke: #000000; stroke-width: 1.0;" x1="139" x2="149" y1="26.0938" y2="10"/><line style="stroke: #038048; stroke-width: 1.5;" x1="52" x2="116" y1="60.1875" y2="60.1875"/><line style="stroke: #038048; stroke-width: 1.5;" x1="116" x2="168.8" y1="40.1875" y2="40.1875"/><line style="stroke: #038048; stroke-width: 1.5;" x1="168.8" x2="236" y1="60.1875" y2="60.1875"/><line style="stroke: #038048; stroke-width: 1.5;" x1="236" x2="288.8" y1="40.1875" y2="40.1875"/><line style="stroke: #038048; stroke-width: 1.5;" x1="288.8" x2="356" y1="60.1875" y2="60.1875"/><line style="stroke: #038048; stroke-width: 1.5;" x1="356" x2="408.8" y1="40.1875" y2="40.1875"/><line style="stroke: #038048; stroke-width: 1.5;" x1="408.8" x2="452" y1="60.1875" y2="60.1875"/><line style="stroke: #038048; stroke-width: 1.5;" x1="116" x2="116" y1="40.1875" y2="60.1875"/><line style="stroke: #038048; stroke-width: 1.5;" x1="168.8" x2="168.8" y1="40.1875" y2="60.1875"/><line style="stroke: #038048; stroke-width: 1.5;" x1="236" x2="236" y1="40.1875" y2="60.1875"/><line style="stroke: #038048; stroke-width: 1.5;" x1="288.8" x2="288.8" y1="40.1875" y2="60.1875"/><line style="stroke: #038048; stroke-width: 1.5;" x1="356" x2="356" y1="40.1875" y2="60.1875"/><line style="stroke: #038048; stroke-width: 1.5;" x1="408.8" x2="408.8" y1="40.1875" y2="60.1875"/><line style="stroke: #FF0000; stroke-width: 1.5;" x1="236" x2="356" y1="30.1875" y2="30.1875"/><polygon fill="#FF0000" points="243.5175,27.4513,243.5175,32.9237,236,30.1875" style="stroke: #FF0000; stroke-width: 1.5;"/><polygon fill="#FF0000" points="348.4825,32.9237,348.4825,27.4513,356,30.1875" style="stroke: #FF0000; stroke-width: 1.5;"/><text fill="#000000" font-family="Serif" font-size="14" lengthAdjust="spacingAndGlyphs" textLength="23" x="284.5" y="22.1113">{T}</text><line style="stroke: #FF0000; stroke-width: 1.5;" x1="288.8" x2="356" y1="50.1875" y2="50.1875"/><polygon fill="#FF0000" points="296.3175,47.4513,296.3175,52.9237,288.8,50.1875" style="stroke: #FF0000; stroke-width: 1.5;"/><polygon fill="#FF0000" points="348.4825,52.9237,348.4825,47.4513,356,50.1875" style="stroke: #FF0000; stroke-width: 1.5;"/><text fill="#000000" font-family="Serif" font-size="14" lengthAdjust="spacingAndGlyphs" textLength="25" x="309.9" y="42.1113">{t1}</text><line style="stroke: #FF0000; stroke-width: 1.5;" x1="212" x2="236" y1="50.1875" y2="50.1875"/><polygon fill="#FF0000" points="219.5175,47.4513,219.5175,52.9237,212,50.1875" style="stroke: #FF0000; stroke-width: 1.5;"/><polygon fill="#FF0000" points="228.4825,52.9237,228.4825,47.4513,236,50.1875" style="stroke: #FF0000; stroke-width: 1.5;"/><text fill="#000000" font-family="Serif" font-size="14" lengthAdjust="spacingAndGlyphs" textLength="25" x="211.5" y="42.1113">{t2}</text><text fill="#000000" font-family="sans-serif" font-size="12" lengthAdjust="spacingAndGlyphs" textLength="37" x="15" y="57.5508">stance</text><text fill="#000000" font-family="sans-serif" font-size="12" lengthAdjust="spacingAndGlyphs" textLength="33" x="15" y="37.5508">swing</text><line style="stroke: #000000; stroke-width: 1.7;" x1="10" x2="457" y1="10" y2="10"/><line style="stroke: #000000; stroke-width: 2.0;" x1="92" x2="92" y1="90.1875" y2="95.1875"/><line style="stroke: #000000; stroke-width: 2.0;" x1="212" x2="212" y1="90.1875" y2="95.1875"/><line style="stroke: #000000; stroke-width: 2.0;" x1="332" x2="332" y1="90.1875" y2="95.1875"/><line style="stroke: #000000; stroke-width: 2.0;" x1="452" x2="452" y1="90.1875" y2="95.1875"/><line style="stroke: #000000; stroke-width: 2.0;" x1="92" x2="452" y1="90.1875" y2="90.1875"/><text fill="#000000" font-family="sans-serif" font-size="12" lengthAdjust="spacingAndGlyphs" textLength="7" x="88.5" y="108.6445">0</text><text fill="#000000" font-family="sans-serif" font-size="12" lengthAdjust="spacingAndGlyphs" textLength="7" x="208.5" y="108.6445">1</text><text fill="#000000" font-family="sans-serif" font-size="12" lengthAdjust="spacingAndGlyphs" textLength="7" x="328.5" y="108.6445">2</text><text fill="#000000" font-family="sans-serif" font-size="12" lengthAdjust="spacingAndGlyphs" textLength="7" x="448.5" y="108.6445">3</text><rect fill="#DDDDDD" height="62.8281" rx="5" ry="5" style="stroke: #000000; stroke-width: 1.0;" width="108" x="179" y="113.2813"/><ellipse cx="190.5" cy="128.3906" fill="#000000" rx="2.5" ry="2.5" style="stroke: #000000; stroke-width: 0.0;"/><text fill="#000000" font-family="sans-serif" font-size="14" lengthAdjust="spacingAndGlyphs" textLength="83" x="198" y="132.8145">cycle = T sec</text><ellipse cx="190.5" cy="146" fill="#000000" rx="2.5" ry="2.5" style="stroke: #000000; stroke-width: 0.0;"/><text fill="#000000" font-family="sans-serif" font-size="14" lengthAdjust="spacingAndGlyphs" textLength="72" x="198" y="150.4238">duty  = t1/T</text><ellipse cx="190.5" cy="163.6094" fill="#000000" rx="2.5" ry="2.5" style="stroke: #000000; stroke-width: 0.0;"/><text fill="#000000" font-family="sans-serif" font-size="14" lengthAdjust="spacingAndGlyphs" textLength="75" x="198" y="168.0332">delay = t2/T</text><!--
@startuml
robust "A state machine (STM)" as STM
scale 1 as 120 pixels

STM is stance

@STM
0.2 is swing
+0.44 is stance
+0.56 is swing
+0.44 is stance
+0.56 is swing
+0.44 is stance
STM@1.2 <-> @2.2 : {T}
STM@1.64 <-> @2.2 : {t1}
STM@1.0 <-> @1.2 : {t2}
legend
 * cycle = T sec
 * duty  = t1/T
 * delay = t2/T
end legend
@enduml

PlantUML version 1.2019.03(Sun Mar 10 20:04:44 JST 2019)
(GPL source distribution)
Java Runtime: Java(TM) SE Runtime Environment
JVM: Java HotSpot(TM) 64-Bit Server VM
Java Version: 1.8.0_201-b09
Operating System: Windows 10
OS Version: 10.0
Default Encoding: MS932
Language: ja
Country: JP
--></g></svg>